<?xml version="1.0" encoding="UTF-8"?>
<svg id="katman_2" data-name="katman 2" xmlns="http://www.w3.org/2000/svg" viewBox="0 0 1068.54 770.05">
  <defs>
    <style>
      .cls-1 {
        fill: #b87332;
      }

      .cls-2 {
        fill: #f3f1ec;
      }
    </style>
  </defs>
  <g id="katman_1" data-name="katman 1">
    <g>
      <g>
        <path class="cls-2" d="M0,170.96v427.43h21.15c17.91,0,33.11-6.11,45.6-18.32,12.48-12.21,18.73-27.28,18.73-45.19V170.96H0Z"/>
        <path class="cls-1" d="M85.48,64.31v21.17H0V0h21.15c17.91,0,33.11,6.24,45.6,18.73,12.48,12.49,18.73,27.67,18.73,45.58Z"/>
      </g>
      <path class="cls-2" d="M212.28,233.65c41.79-41.79,92.26-62.69,151.43-62.69s109.5,20.9,151.02,62.69c41.52,41.8,62.28,92.28,62.28,151.43s-20.76,109.5-62.28,151.02c-41.52,41.52-91.87,62.28-151.02,62.28s-109.64-20.76-151.43-62.28c-41.8-41.52-62.69-91.86-62.69-151.02s20.89-109.63,62.69-151.43ZM272.93,475.44c25.24,24.97,55.49,37.45,90.77,37.45s65.4-12.48,90.37-37.45c24.96-24.96,37.45-55.08,37.45-90.37s-12.49-65.54-37.45-90.78c-24.97-25.24-55.09-37.86-90.37-37.86s-65.54,12.62-90.77,37.86c-25.24,25.24-37.86,55.5-37.86,90.78s12.62,65.41,37.86,90.37Z"/>
      <path class="cls-2" d="M983.05,385.08c0-35.27-12.49-65.54-37.45-90.78-24.97-25.24-55.09-37.86-90.37-37.86s-65.54,12.62-90.77,37.86c-25.24,25.24-37.86,55.5-37.86,90.78v149.8c0,17.91-6.25,32.97-18.72,45.18-12.49,12.21-27.68,18.32-45.59,18.32h-21.17v-213.3c0-59.15,20.89-109.63,62.69-151.43,41.79-41.79,92.26-62.69,151.43-62.69s109.5,20.9,151.02,62.69c41.52,41.8,62.28,92.28,62.28,151.43v213.3h-21.17c-17.91,0-33.11-6.11-45.59-18.32-12.49-12.21-18.73-27.27-18.73-45.18v-149.8Z"/>
      <g>
        <polygon class="cls-2" points="85.27 687.13 85.27 769.31 76.97 769.31 76.97 703.57 44.7 758.91 40.63 758.91 8.37 704.02 8.37 769.31 .07 769.31 .07 687.13 7.16 687.13 42.75 748.05 78.18 687.13 85.27 687.13"/>
        <polygon class="cls-2" points="214.03 761.77 214.03 769.31 155.98 769.31 155.98 687.13 212.38 687.13 212.38 694.67 164.73 694.67 164.73 723.93 207.25 723.93 207.25 731.31 164.73 731.31 164.73 761.77 214.03 761.77"/>
        <path class="cls-2" d="M313.88,770.05c-6.18,0-11.9-1.04-17.14-3.12-5.25-2.07-9.78-4.98-13.62-8.74-3.84-3.75-6.83-8.17-8.98-13.26-2.15-5.08-3.23-10.64-3.23-16.68s1.07-11.58,3.23-16.67c2.15-5.08,5.17-9.51,9.04-13.26,3.87-3.76,8.43-6.67,13.68-8.74,5.24-2.07,10.96-3.12,17.14-3.12s11.54,1,16.79,3c5.24,2,9.66,4.98,13.26,8.98l-5.52,5.51c-3.37-3.44-7.08-5.92-11.15-7.45-4.07-1.53-8.45-2.29-13.15-2.29-4.93,0-9.51.84-13.73,2.53-4.23,1.68-7.91,4.07-11.03,7.16-3.13,3.1-5.58,6.69-7.34,10.8-1.76,4.12-2.64,8.63-2.64,13.55s.88,9.45,2.64,13.56c1.76,4.12,4.21,7.72,7.34,10.8,3.12,3.09,6.8,5.48,11.03,7.16,4.23,1.69,8.8,2.53,13.73,2.53s9.08-.78,13.15-2.35c4.07-1.56,7.79-4.07,11.15-7.51l5.52,5.51c-3.6,4-8.02,7.01-13.26,9.04-5.25,2.04-10.88,3.06-16.91,3.06Z"/>
        <path class="cls-2" d="M436.9,770.05c-6.18,0-11.9-1.04-17.14-3.12-5.25-2.07-9.78-4.98-13.62-8.74-3.84-3.75-6.83-8.17-8.98-13.26-2.15-5.08-3.23-10.64-3.23-16.68s1.07-11.58,3.23-16.67c2.15-5.08,5.17-9.51,9.04-13.26,3.87-3.76,8.43-6.67,13.68-8.74,5.24-2.07,10.96-3.12,17.14-3.12s11.54,1,16.79,3c5.24,2,9.66,4.98,13.26,8.98l-5.52,5.51c-3.37-3.44-7.08-5.92-11.15-7.45-4.07-1.53-8.45-2.29-13.15-2.29-4.93,0-9.51.84-13.73,2.53-4.23,1.68-7.91,4.07-11.03,7.16-3.13,3.1-5.58,6.69-7.34,10.8-1.76,4.12-2.64,8.63-2.64,13.55s.88,9.45,2.64,13.56c1.76,4.12,4.21,7.72,7.34,10.8,3.12,3.09,6.8,5.48,11.03,7.16,4.23,1.69,8.8,2.53,13.73,2.53s9.08-.78,13.15-2.35c4.07-1.56,7.79-4.07,11.15-7.51l5.52,5.51c-3.6,4-8.02,7.01-13.26,9.04-5.25,2.04-10.88,3.06-16.91,3.06Z"/>
        <path class="cls-2" d="M559.18,687.13h-8.6l-37.54,82.18h9.05l9.8-21.86h45.99l9.8,21.86h9.05l-37.54-82.18ZM535.05,740.36l19.9-44.18,19.75,44.18h-39.66Z"/>
        <polygon class="cls-2" points="722.93 687.13 722.93 769.31 715.84 769.31 662.92 702.51 662.92 769.31 654.32 769.31 654.32 687.13 661.41 687.13 714.34 753.78 714.34 687.13 722.93 687.13"/>
        <path class="cls-2" d="M793.63,769.35v-82.17h8.69v82.17h-8.69Z"/>
        <path class="cls-2" d="M908.66,770.05c-6.18,0-11.9-1.04-17.14-3.12-5.25-2.07-9.78-4.98-13.62-8.74-3.84-3.75-6.83-8.17-8.98-13.26-2.15-5.08-3.23-10.64-3.23-16.68s1.07-11.58,3.23-16.67c2.15-5.08,5.17-9.51,9.04-13.26,3.87-3.76,8.43-6.67,13.68-8.74,5.24-2.07,10.96-3.12,17.14-3.12s11.54,1,16.79,3c5.24,2,9.66,4.98,13.26,8.98l-5.52,5.51c-3.37-3.44-7.08-5.92-11.15-7.45-4.07-1.53-8.45-2.29-13.15-2.29-4.93,0-9.51.84-13.73,2.53-4.23,1.68-7.91,4.07-11.03,7.16-3.13,3.1-5.58,6.69-7.34,10.8-1.76,4.12-2.64,8.63-2.64,13.55s.88,9.45,2.64,13.56c1.76,4.12,4.21,7.72,7.34,10.8,3.12,3.09,6.8,5.48,11.03,7.16,4.23,1.69,8.8,2.53,13.73,2.53s9.08-.78,13.15-2.35c4.07-1.56,7.79-4.07,11.15-7.51l5.52,5.51c-3.6,4-8.02,7.01-13.26,9.04-5.25,2.04-10.88,3.06-16.91,3.06Z"/>
        <path class="cls-2" d="M1030.98,687.13h-8.59l-37.54,82.18h9.04l9.8-21.86h45.84l9.8,21.86h9.2l-37.54-82.18ZM1006.86,740.36l19.75-44.18,19.75,44.18h-39.51Z"/>
      </g>
    </g>
  </g>
</svg>